<svg id="_001-hand" data-name="001-hand" xmlns="http://www.w3.org/2000/svg" width="109.191" height="109.225" viewBox="0 0 109.191 109.225">
  <path id="Trazado_2770" data-name="Trazado 2770" d="M169.646,224.551a6.374,6.374,0,0,0-8.979.756L146.079,240.3h.015a6.521,6.521,0,0,0-6.259-4.692h-24.16a25.509,25.509,0,0,0-10.243-2.132c-10.092,0-18.82,4.892-22.987,14.163l19.285,19.186.036-.028,3.321-3.2a8.525,8.525,0,0,1,5.922-2.392h28.424a16.99,16.99,0,0,0,11.85-4.814L170.4,233.529A6.372,6.372,0,0,0,169.646,224.551Zm0,0" transform="translate(-64.964 -175.465)" fill="#fed2a4"/>
  <path id="Trazado_2771" data-name="Trazado 2771" d="M240.85,31.323A21.327,21.327,0,1,1,219.522,10,21.327,21.327,0,0,1,240.85,31.323Zm0,0" transform="translate(-156.021 -7.864)" fill="#ffe781"/>
  <path id="Trazado_2772" data-name="Trazado 2772" d="M44.521,360.719,34.192,370.895l-23.946-24.13,10.146-10.176a4.267,4.267,0,0,1,6.033,0l18.1,18.1A4.267,4.267,0,0,1,44.521,360.719Zm0,0" transform="translate(-8.167 -263.802)" fill="#e87288"/>
  <path id="Trazado_2773" data-name="Trazado 2773" d="M222.366,333.835a2.134,2.134,0,1,0-3.017,0A2.136,2.136,0,0,0,222.366,333.835Zm0,0" transform="translate(-172.171 -259.753)"/>
  <path id="Trazado_2774" data-name="Trazado 2774" d="M188.449,23.46A23.46,23.46,0,1,0,211.909,0,23.487,23.487,0,0,0,188.449,23.46Zm42.654,0A19.195,19.195,0,1,1,211.909,4.266,19.216,19.216,0,0,1,231.1,23.46Zm0,0" transform="translate(-148.354)"/>
  <path id="Trazado_2775" data-name="Trazado 2775" d="M25.066,275.619a2.132,2.132,0,0,0,3.01.018l10.34-10.186a6.445,6.445,0,0,0,1.518-6.618l2.224-2.145a6.36,6.36,0,0,1,4.441-1.794H74.951a19.1,19.1,0,0,0,13.388-5.439c.148-.144-1.126,1.357,19.342-23.106A8.531,8.531,0,0,0,94.7,215.275L82.115,228.21a8.571,8.571,0,0,0-6.631-3.175H51.7a27.515,27.515,0,0,0-10.68-2.132c-10.27,0-19.237,4.743-24.05,13.636a6.371,6.371,0,0,0-5.7,1.767L1.123,248.482a2.133,2.133,0,0,0,0,3.008Zm15.956-48.452a23.281,23.281,0,0,1,9.389,1.954,2.129,2.129,0,0,0,.855.179H75.485a4.265,4.265,0,1,1,0,8.531h-17.4a2.132,2.132,0,1,0,0,4.265h17.4a8.518,8.518,0,0,0,8.456-9.646c12.174-12.514,13.891-14.272,13.964-14.36a4.266,4.266,0,1,1,6.513,5.512L85.289,246.471a14.85,14.85,0,0,1-10.337,4.157H46.6a10.6,10.6,0,0,0-7.4,2.99l-1.812,1.749L20.675,238.66C24.58,231.334,31.908,227.168,41.022,227.168ZM14.287,241.321a2.128,2.128,0,0,1,2.641-.3c.369.225-.691-.74,18.472,18.4a2.137,2.137,0,0,1,.012,3.006L26.6,271.107,5.642,249.991Zm0,0" transform="translate(-0.501 -167.025)"/>
  <path id="Trazado_2776" data-name="Trazado 2776" d="M269.939,42.189v2.433a6.4,6.4,0,0,0,2.094,12.429,2.17,2.17,0,0,1,2.157,1.887,2.135,2.135,0,0,1-2.119,2.379,3.831,3.831,0,0,1-2.737-1.575,2.173,2.173,0,0,0-2.744-.507,2.135,2.135,0,0,0-.552,3.213,8.846,8.846,0,0,0,3.9,2.777v2.422a2.177,2.177,0,0,0,1.816,2.177,2.134,2.134,0,0,0,2.449-2.11v-2.5a6.4,6.4,0,0,0-2.094-12.429,2.17,2.17,0,0,1-2.157-1.887,2.135,2.135,0,0,1,2.119-2.379,3.381,3.381,0,0,1,2.256,1.067,2.189,2.189,0,0,0,2.792.239,2.134,2.134,0,0,0,.226-3.257,8.24,8.24,0,0,0-3.141-1.963V42.123a2.133,2.133,0,0,0-2.449-2.11A2.176,2.176,0,0,0,269.939,42.189Zm0,0" transform="translate(-208.997 -31.459)"/>
</svg>
