<svg id="_002-blocks" data-name="002-blocks" xmlns="http://www.w3.org/2000/svg" width="109.225" height="81.492" viewBox="0 0 109.225 81.492">
  <path id="Trazado_2777" data-name="Trazado 2777" d="M229.266,65H212.2a3.2,3.2,0,0,0-3.2,3.2V81.853a3.2,3.2,0,0,0,3.2,3.2h17.066a3.2,3.2,0,0,0,3.2-3.2V68.2A3.2,3.2,0,0,0,229.266,65Z" transform="translate(-164.414 -65)" fill="#ff515e"/>
  <path id="Trazado_2778" data-name="Trazado 2778" d="M389.266,65H372.2a3.2,3.2,0,0,0-3.2,3.2V81.853a3.2,3.2,0,0,0,3.2,3.2h17.066a3.2,3.2,0,0,0,3.2-3.2V68.2A3.2,3.2,0,0,0,389.266,65Z" transform="translate(-290.281 -65)" fill="#c6507a"/>
  <path id="Trazado_2779" data-name="Trazado 2779" d="M248.465,131.2v30.719a3.2,3.2,0,0,1-3.2,3.2H180.2a3.2,3.2,0,0,1-3.2-3.2V131.2a3.2,3.2,0,0,1,3.2-3.2h65.066A3.2,3.2,0,0,1,248.465,131.2Z" transform="translate(-139.241 -114.56)" fill="#ff6888"/>
  <path id="Trazado_2780" data-name="Trazado 2780" d="M379.839,131.2v30.719a3.2,3.2,0,0,1-3.2,3.2H344V128h32.639A3.2,3.2,0,0,1,379.839,131.2Z" transform="translate(-270.615 -114.56)" fill="#ff515e"/>
  <path id="Trazado_2781" data-name="Trazado 2781" d="M364.839,273H332.2a3.2,3.2,0,0,0-3.2,3.2v30.72a3.2,3.2,0,0,0,3.2,3.2h32.639a3.2,3.2,0,0,0,3.2-3.2V276.2A3.2,3.2,0,0,0,364.839,273Z" transform="translate(-258.814 -228.627)" fill="#f4de48"/>
  <path id="Trazado_2782" data-name="Trazado 2782" d="M53.266,209H36.2a3.2,3.2,0,0,0-3.2,3.2v13.653a3.2,3.2,0,0,0,3.2,3.2H53.266a3.2,3.2,0,0,0,3.2-3.2V212.2A3.2,3.2,0,0,0,53.266,209Z" transform="translate(-25.96 -178.281)" fill="#554fb2"/>
  <path id="Trazado_2783" data-name="Trazado 2783" d="M76.585,276.2v30.72a3.2,3.2,0,0,1-3.2,3.2H3.2a3.2,3.2,0,0,1-3.2-3.2V276.2A3.2,3.2,0,0,1,3.2,273H73.385A3.2,3.2,0,0,1,76.585,276.2Z" transform="translate(0 -228.627)" fill="#736dd9"/>
  <path id="Trazado_2784" data-name="Trazado 2784" d="M215.039,276.2v30.72a3.2,3.2,0,0,1-3.2,3.2H176V273h35.839A3.2,3.2,0,0,1,215.039,276.2Z" transform="translate(-138.454 -228.627)" fill="#554fb2"/>
</svg>
