<svg id="_003-seo-report" data-name="003-seo-report" xmlns="http://www.w3.org/2000/svg" width="81.44" height="109.225" viewBox="0 0 81.44 109.225">
  <path id="Trazado_2785" data-name="Trazado 2785" d="M170.814,101.6H104.755a3.876,3.876,0,0,1-3.876-3.876V3.876A3.876,3.876,0,0,1,104.755,0h66.059a3.876,3.876,0,0,1,3.876,3.876V97.721a3.877,3.877,0,0,1-3.876,3.876Z" transform="translate(-93.251 0)" fill="#3c87d0"/>
  <path id="Trazado_2786" data-name="Trazado 2786" d="M135.057,137.353H69a3.876,3.876,0,0,1-3.876-3.876V39.632A3.876,3.876,0,0,1,69,35.756h66.059a3.876,3.876,0,0,1,3.876,3.876v93.844A3.876,3.876,0,0,1,135.057,137.353Z" transform="translate(-65.122 -28.128)" fill="#c8effe"/>
  <path id="Trazado_2787" data-name="Trazado 2787" d="M363.076,35.757h-8.1a3.876,3.876,0,0,1,3.876,3.876v93.844a3.876,3.876,0,0,1-3.876,3.876h8.1a3.876,3.876,0,0,0,3.876-3.876V39.633a3.876,3.876,0,0,0-3.876-3.876Z" transform="translate(-293.141 -28.129)" fill="#b3dafe"/>
  <g id="Grupo_1467" data-name="Grupo 1467" transform="translate(41.334 22.164)">
    <g id="Grupo_1464" data-name="Grupo 1464">
      <path id="Trazado_2788" data-name="Trazado 2788" d="M281.723,106.962h-21.31a1.533,1.533,0,1,1,0-3.066h21.31a1.533,1.533,0,1,1,0,3.066Z" transform="translate(-258.88 -103.896)" fill="#3e5959"/>
    </g>
    <g id="Grupo_1465" data-name="Grupo 1465" transform="translate(0 7.172)">
      <path id="Trazado_2789" data-name="Trazado 2789" d="M281.723,140.582h-21.31a1.533,1.533,0,1,1,0-3.066h21.31a1.533,1.533,0,1,1,0,3.066Z" transform="translate(-258.88 -137.516)" fill="#3e5959"/>
    </g>
    <g id="Grupo_1466" data-name="Grupo 1466" transform="translate(0 14.344)">
      <path id="Trazado_2790" data-name="Trazado 2790" d="M281.723,174.2h-21.31a1.533,1.533,0,1,1,0-3.066h21.31a1.533,1.533,0,1,1,0,3.066Z" transform="translate(-258.88 -171.135)" fill="#3e5959"/>
    </g>
  </g>
  <g id="Grupo_1468" data-name="Grupo 1468" transform="translate(42.834 76.535)">
    <path id="Trazado_2791" data-name="Trazado 2791" d="M287.254,361.829h-19.81a1.533,1.533,0,0,1,0-3.066h19.81a1.533,1.533,0,0,1,0,3.066Z" transform="translate(-265.911 -358.763)" fill="#3e5959"/>
  </g>
  <g id="Grupo_1469" data-name="Grupo 1469" transform="translate(8.101 61.574)">
    <path id="Trazado_2792" data-name="Trazado 2792" d="M125.941,291.7h-21.31a1.533,1.533,0,1,1,0-3.066h21.31a1.533,1.533,0,0,1,0,3.066Z" transform="translate(-103.098 -288.635)" fill="#3e5959"/>
  </g>
  <g id="Grupo_1470" data-name="Grupo 1470" transform="translate(8.101 54.402)">
    <path id="Trazado_2793" data-name="Trazado 2793" d="M125.941,258.081h-21.31a1.533,1.533,0,1,1,0-3.066h21.31a1.533,1.533,0,0,1,0,3.066Z" transform="translate(-103.098 -255.015)" fill="#3e5959"/>
  </g>
  <path id="Trazado_2794" data-name="Trazado 2794" d="M169.859,74.888V89.129H184.1A14.241,14.241,0,0,0,169.859,74.888Z" transform="translate(-147.515 -58.912)" fill="#ee6161"/>
  <path id="Trazado_2795" data-name="Trazado 2795" d="M117.343,74.888a14.241,14.241,0,1,0,14.241,14.241H117.343Z" transform="translate(-95 -58.912)" fill="#fea95c"/>
  <path id="Trazado_2796" data-name="Trazado 2796" d="M270.176,256.487h-25.6a1.022,1.022,0,0,1-1.022-1.022V240.747a1.022,1.022,0,0,1,1.022-1.022h25.6a1.022,1.022,0,0,1,1.022,1.022v14.718A1.022,1.022,0,0,1,270.176,256.487Z" transform="translate(-205.488 -188.585)" fill="#ee6161"/>
  <path id="Trazado_2797" data-name="Trazado 2797" d="M108.6,370.627H104.12a1.022,1.022,0,0,1-1.022-1.022V347.247a1.022,1.022,0,0,1,1.022-1.022H108.6a1.022,1.022,0,0,1,1.022,1.022v22.358A1.022,1.022,0,0,1,108.6,370.627Z" transform="translate(-94.997 -272.365)" fill="#fe7701"/>
  <path id="Trazado_2798" data-name="Trazado 2798" d="M165.64,392.26h-4.479a1.022,1.022,0,0,1-1.022-1.022V374.746a1.022,1.022,0,0,1,1.022-1.022h4.479a1.022,1.022,0,0,1,1.022,1.022v16.492A1.022,1.022,0,0,1,165.64,392.26Z" transform="translate(-139.869 -293.998)" fill="#fe9738"/>
  <path id="Trazado_2799" data-name="Trazado 2799" d="M222.682,419.211H218.2a1.022,1.022,0,0,1-1.022-1.022v-9.183a1.022,1.022,0,0,1,1.022-1.022h4.479a1.022,1.022,0,0,1,1.022,1.022v9.183A1.022,1.022,0,0,1,222.682,419.211Z" transform="translate(-184.742 -320.949)" fill="#fea95c"/>
  <g id="Grupo_1471" data-name="Grupo 1471" transform="translate(42.834 84.068)">
    <path id="Trazado_2800" data-name="Trazado 2800" d="M287.254,397.14h-19.81a1.533,1.533,0,0,1,0-3.066h19.81a1.533,1.533,0,0,1,0,3.066Z" transform="translate(-265.911 -394.074)" fill="#3e5959"/>
  </g>
  <g id="Grupo_1472" data-name="Grupo 1472" transform="translate(42.834 91.601)">
    <path id="Trazado_2801" data-name="Trazado 2801" d="M287.254,432.452h-19.81a1.533,1.533,0,0,1,0-3.066h19.81a1.533,1.533,0,0,1,0,3.066Z" transform="translate(-265.911 -429.386)" fill="#3e5959"/>
  </g>
</svg>
