<svg id="_004-family" data-name="004-family" xmlns="http://www.w3.org/2000/svg" width="73.932" height="73.933" viewBox="0 0 73.932 73.933">
  <path id="Trazado_2802" data-name="Trazado 2802" d="M275.8,35.666h-6.518a1.8,1.8,0,0,1-1.794-1.794l-.9-15.2s-1.451-12.591,6.077-14.245c0,0,3.061-5.956,12.864-4.048a3.806,3.806,0,0,1,.393.115,14.9,14.9,0,0,1,6.1,3.676c5.338,5.312,4.265,11.588,4.4,12.369,0,4.36.069-.486-.9,17.334a1.8,1.8,0,0,1-1.794,1.794H286.8" transform="translate(-228.001 -0.002)" fill="#7f7369"/>
  <path id="Trazado_2803" data-name="Trazado 2803" d="M276.931,35.743V33.61a11.281,11.281,0,0,1-6.753-9.767c0-.028-.006-.116-.006-.132-.006-.148-.01-.3-.01-.445,0-6.711,0-6.3.005-6.414-.067-3.582.487-11.1,6.184-12.348,0,0,1.876-3.649,7.392-4.32-4.2-.462-9.134.787-11.078,4.32-5.08,1.116-6.3,7.3-6.181,12.473q0,.108.006.211c.03.959.1,1.561.1,1.561l.9,15.2a1.8,1.8,0,0,0,1.794,1.794Z" transform="translate(-227.998 -0.078)" fill="#72655a"/>
  <path id="Trazado_2804" data-name="Trazado 2804" d="M32.964,264.941l1.928-17.231c.676-5.2.4-7.2,2.078-9.239a7.717,7.717,0,0,0-1.747-1.517l-.054-.013c-1.815-1.087-3.344-1.133-6.717-2.061h0L25,233.229h0v-4.121a11.31,11.31,0,0,1-9,.024h0l-.015,4.114h0l-3.435,1.634h0c-3.352.922-4.9.972-6.717,2.061l-.054.013a4.818,4.818,0,0,0-.474.332c-2.6,1.866-2.64,4.29-2.864,6.082l-1.032,9.225h0C-.039,265.8,0,264.734,0,265.752a3.989,3.989,0,0,0,4.128,4.205h0c.29,0,32.59,0,32.837,0C34.172,269.908,32.719,267.774,32.964,264.941Z" transform="translate(-0.004 -196.025)" fill="#dd9a5e"/>
  <g id="Grupo_1473" data-name="Grupo 1473" transform="translate(0 33.107)">
    <path id="Trazado_2805" data-name="Trazado 2805" d="M3.723,305.46C3.7,304,4,304.02,6.283,280.4a6.61,6.61,0,0,1,2.536-4.872,10.011,10.011,0,0,0-2.98,1.131l-.054.013a4.838,4.838,0,0,0-.474.332c-2.6,1.866-2.64,4.29-2.864,6.082C2.428,283.245,0,304.752,0,305.466a3.989,3.989,0,0,0,4.128,4.205H7.851A3.976,3.976,0,0,1,3.723,305.46Z" transform="translate(-0.003 -268.845)" fill="#d38d54"/>
    <path id="Trazado_2806" data-name="Trazado 2806" d="M114.439,236.9v-6.739a11.187,11.187,0,0,1-3.705-.894l-.015,4.114h0Z" transform="translate(-94.732 -229.271)" fill="#d38d54"/>
  </g>
  <path id="Trazado_2807" data-name="Trazado 2807" d="M269.04,267.6c-2.627-23.261-2.479-22.6-2.714-23.742a6.452,6.452,0,0,0-3.039-4.245l-.054-.013a9.17,9.17,0,0,0-2.177-.931l-7.574-1.885a.976.976,0,0,1-.417-.9v-3.653a11.3,11.3,0,0,1-9-.019v3.672a.976.976,0,0,1-.417.9c-6.407,1.707-7.832,1.667-9.751,2.816l-.054.013a6.606,6.606,0,0,0-3.221,5.365L228.1,267.6c-.254,2.933,1.3,5.016,4.1,5.016H264.94a3.989,3.989,0,0,0,4.128-4.205v-.005A7.929,7.929,0,0,0,269.04,267.6Z" transform="translate(-195.138 -198.683)" fill="#eab883"/>
  <path id="Trazado_2808" data-name="Trazado 2808" d="M231.789,304.547v-.005a7.846,7.846,0,0,1,.028-.806l2.532-23.961a6.634,6.634,0,0,1,3.158-5.325,12.125,12.125,0,0,0-3.6,1.286l-.054.013a6.606,6.606,0,0,0-3.221,5.365L228.1,303.736c-.254,2.933,1.3,5.016,4.1,5.016h3.719A3.989,3.989,0,0,1,231.789,304.547Z" transform="translate(-195.138 -234.82)" fill="#d8a373"/>
  <path id="Trazado_2809" data-name="Trazado 2809" d="M276.006,255.248c-1.194-10.6-1.142-10.474-1.332-11.392a6.46,6.46,0,0,0-3.039-4.245l-.054-.013a9.171,9.171,0,0,0-2.177-.931l-7.574-1.885a.976.976,0,0,1-.417-.9v-3.653h0v-.019a11.209,11.209,0,0,1-9,0v.019h0v3.653a.976.976,0,0,1-.417.9c-6.407,1.707-7.832,1.667-9.751,2.816l-.054.013a6.639,6.639,0,0,0-3.221,5.365l-1.15,10.272,7.246.76a.729.729,0,0,1,.652.762l-.8,15.844h24.018l-.834-15.783a.792.792,0,0,1,.708-.83Z" transform="translate(-203.486 -198.682)" fill="#d83d3d"/>
  <path id="Trazado_2810" data-name="Trazado 2810" d="M237.827,291.385l3.6.378,1.267-11.989a6.634,6.634,0,0,1,3.158-5.325,12.289,12.289,0,0,0-3.6,1.286l-.054.013a6.452,6.452,0,0,0-3.039,4.245C238.926,281.121,238.97,281.367,237.827,291.385Z" transform="translate(-203.485 -234.82)" fill="#a82626"/>
  <path id="Trazado_2811" data-name="Trazado 2811" d="M43.55,261.371l-.054-.013c-1.819-1.09-3.372-1.141-6.694-2.055l0-.006-3.45-1.651-.025.038s0-.009,0-.014l-4.5,4.236-4.486-4.243L20.91,259.3h0c-3.352.922-4.9.972-6.717,2.061l-.054.013a6.606,6.606,0,0,0-3.221,5.365L9.768,277.01l7.107.746a.848.848,0,0,1,.759.886l-.79,15.732H40.862l-.834-15.781a.794.794,0,0,1,.71-.832l1.9-.2c1.393-11.555.986-12.592,2.673-14.658A10.227,10.227,0,0,0,43.55,261.371Z" transform="translate(-8.358 -220.441)" fill="#70bbef"/>
  <path id="Trazado_2812" data-name="Trazado 2812" d="M14.64,280.4a6.61,6.61,0,0,1,2.536-4.872,10.022,10.022,0,0,0-2.98,1.131l-.054.013a7.756,7.756,0,0,0-1.761,1.533c-1.8,2.2-1.311,3.943-2.61,14.107l3.676.386C13.436,292.81,13.594,291.227,14.64,280.4Z" transform="translate(-8.361 -235.739)" fill="#4caee5"/>
  <path id="Trazado_2813" data-name="Trazado 2813" d="M330.611,234.894l-3.033-.755a.976.976,0,0,1-.417-.9v-4.1h0v-.019a11.215,11.215,0,0,1-9,0v.019h0v4.1a.976.976,0,0,1-.417.9l-3.079.766A9.134,9.134,0,0,0,330.611,234.894Z" transform="translate(-269.232 -196.039)" fill="#eab883"/>
  <path id="SVGCleanerId_0" d="M44.139,17.978V14.1A14.126,14.126,0,0,1,66.3,2.532c7.262,5.07,5.879,12.526,6.038,15.446" transform="translate(-37.766 0)" fill="#4c4846"/>
  <g id="Grupo_1474" data-name="Grupo 1474" transform="translate(6.373 0)">
    <path id="SVGCleanerId_0_1_" d="M44.139,17.978V14.1A14.126,14.126,0,0,1,66.3,2.532c7.262,5.07,5.879,12.526,6.038,15.446" transform="translate(-44.139 0)" fill="#4c4846"/>
  </g>
  <path id="Trazado_2814" data-name="Trazado 2814" d="M59.644.075A14.111,14.111,0,0,0,44.139,14.1v3.878h2.812V14.1A14.1,14.1,0,0,1,59.644.075Z" transform="translate(-37.766 -0.004)" fill="#3f3b39"/>
  <g id="Grupo_1475" data-name="Grupo 1475" transform="translate(5.671 16.297)">
    <path id="Trazado_2815" data-name="Trazado 2815" d="M223.469,115.8a3.266,3.266,0,0,1-3.513,2.942v-5.884A3.266,3.266,0,0,1,223.469,115.8Z" transform="translate(-193.866 -112.858)" fill="#dd9a5e"/>
    <path id="Trazado_2816" data-name="Trazado 2816" d="M39.279,115.8a3.266,3.266,0,0,0,3.513,2.942v-5.884A3.266,3.266,0,0,0,39.279,115.8Z" transform="translate(-39.279 -112.858)" fill="#dd9a5e"/>
  </g>
  <g id="Grupo_1476" data-name="Grupo 1476" transform="translate(5.669 17.916)">
    <path id="Trazado_2817" data-name="Trazado 2817" d="M219.956,125.695v2.644a3.266,3.266,0,0,0,3.513-2.942,2.549,2.549,0,0,0-.375-1.322A3.633,3.633,0,0,1,219.956,125.695Z" transform="translate(-193.864 -124.075)" fill="#d38d54"/>
    <path id="Trazado_2818" data-name="Trazado 2818" d="M39.64,124.075c-1.166,1.936.507,4.264,3.138,4.264v-2.644A3.633,3.633,0,0,1,39.64,124.075Z" transform="translate(-39.263 -124.075)" fill="#d38d54"/>
  </g>
  <path id="Trazado_2819" data-name="Trazado 2819" d="M83.536,74.92a1.612,1.612,0,0,0-1.865-1.606c-.209.032-.441.066-.589.087a43.567,43.567,0,0,1-13.055-.087,1.611,1.611,0,0,0-1.865,1.606,4.6,4.6,0,0,1-1.818,3.7,3.4,3.4,0,0,1-.783.442c0,7.307-.087,7.8.3,9.451a11.292,11.292,0,0,0,21.484,1.542c1.079-2.726.788-4.8.788-10.993A4.407,4.407,0,0,1,83.536,74.92Z" transform="translate(-54.376 -62.711)" fill="#edae6b"/>
  <path id="Trazado_2820" data-name="Trazado 2820" d="M67.746,90.375c-.8-2.841-.355-4.577-.479-9.962a1.571,1.571,0,0,1,.618-1.267,5.09,5.09,0,0,0,1.987-4.176,1.743,1.743,0,0,1,.662-1.342c-.537-.054-1.059-.116-1.54-.18-.28-.038-.6-.083-.92-.133a1.611,1.611,0,0,0-1.865,1.606,4.6,4.6,0,0,1-1.818,3.7,3.393,3.393,0,0,1-.783.442c0,7.352,0,6.972.011,7.334a11.277,11.277,0,0,0,8.5,10.448C71.905,96.681,68.642,93.572,67.746,90.375Z" transform="translate(-54.422 -62.712)" fill="#dd9a5e"/>
  <path id="Trazado_2821" data-name="Trazado 2821" d="M136.289,289v-9.158l-1.116,1.05-1.116-1.055V289a1.116,1.116,0,1,0,2.232,0Z" transform="translate(-114.7 -239.43)" fill="#4caee5"/>
  <path id="Trazado_2822" data-name="Trazado 2822" d="M146.309,257.645l-4.525,4.26,2.443,2.461a1.1,1.1,0,0,0,1.647-.1l3.885-4.973Z" transform="translate(-121.311 -220.441)" fill="#dadada"/>
  <g id="Grupo_1477" data-name="Grupo 1477" transform="translate(20.473 37.204)">
    <path id="Trazado_2823" data-name="Trazado 2823" d="M148.046,258.476l-1.737-.831-4.525,4.26,1.616,1.629Z" transform="translate(-141.784 -257.645)" fill="#ceccca"/>
    <path id="Trazado_2824" data-name="Trazado 2824" d="M161,305.775a1.1,1.1,0,0,0,.645.078Z" transform="translate(-158.225 -298.825)" fill="#ceccca"/>
  </g>
  <path id="Trazado_2825" data-name="Trazado 2825" d="M90.049,257.763l4.486,4.243-2.443,2.461a1.1,1.1,0,0,1-1.647-.1L86.56,259.4Z" transform="translate(-74.061 -220.542)" fill="#dadada"/>
  <path id="Trazado_2826" data-name="Trazado 2826" d="M101.145,261.99l1.546,1.645,1.616-1.629-4.486-4.243-1.839.861Z" transform="translate(-83.835 -220.542)" fill="#ceccca"/>
  <path id="Trazado_2827" data-name="Trazado 2827" d="M321.9,235.515v-5.478a11.14,11.14,0,0,1-3.738-.914c-.113,3.253.295,4.692-.417,5.015l-3.079.766a9.772,9.772,0,0,0,3.024,3.181l3.2-1.175S321.9,236.407,321.9,235.515Z" transform="translate(-269.232 -196.038)" fill="#d8a373"/>
  <path id="Trazado_2828" data-name="Trazado 2828" d="M313.442,93.5a1.191,1.191,0,0,1,1.136,1.189v.854h0a15.193,15.193,0,0,1-.479,4.916,11.291,11.291,0,0,1-22.081-2.688c0-.043,0,.012-.006-.132s-.01-.3-.01-.445V91.47h0V90.9a1.4,1.4,0,0,1,1.118-1.37,9.036,9.036,0,0,0,4.706-2.7,1.029,1.029,0,0,1,1.544.05A19.058,19.058,0,0,0,313.442,93.5Z" transform="translate(-249.837 -74.009)" fill="#f7cf9c"/>
  <path id="Trazado_2829" data-name="Trazado 2829" d="M296.888,114.117c-1.491-3.012-1.145-5.147-1.168-9.334v-4.358a8.759,8.759,0,0,1-2.6,1.018,1.4,1.4,0,0,0-1.118,1.37v6.3c0,.187.01.477.011.494s.016.275.026.406a11.294,11.294,0,0,0,13.111,10.232A11.3,11.3,0,0,1,296.888,114.117Z" transform="translate(-249.837 -85.924)" fill="#eab883"/>
  <g id="Grupo_1478" data-name="Grupo 1478" transform="translate(43.303 38.855)">
    <path id="Trazado_2830" data-name="Trazado 2830" d="M379.993,269.623l-2.176-.542a9.3,9.3,0,0,1-7.974,4.681S380.038,283.958,379.993,269.623Z" transform="translate(-359.741 -269.081)" fill="#b72c2c"/>
    <path id="Trazado_2831" data-name="Trazado 2831" d="M299.884,269.623l2.176-.542a9.3,9.3,0,0,0,7.974,4.681S299.839,283.958,299.884,269.623Z" transform="translate(-299.884 -269.081)" fill="#b72c2c"/>
  </g>
  <g id="Grupo_1479" data-name="Grupo 1479" transform="translate(43.404 41.747)">
    <path id="Trazado_2832" data-name="Trazado 2832" d="M305.784,289.467c-1.8.958-3.872,1.415-5.2-.361,1.056,10.782,10.049,1.789,10.049,1.789A8.961,8.961,0,0,1,305.784,289.467Z" transform="translate(-300.585 -289.106)" fill="#a82626"/>
    <path id="Trazado_2833" data-name="Trazado 2833" d="M374.693,289.467c1.8.958,3.872,1.415,5.2-.361-1.056,10.782-10.049,1.789-10.049,1.789A8.961,8.961,0,0,0,374.693,289.467Z" transform="translate(-359.842 -289.106)" fill="#a82626"/>
  </g>
  <path id="Trazado_2834" data-name="Trazado 2834" d="M205.354,255.2a9.848,9.848,0,0,0-16.087.94c-2.079,3.358-1.294,6.418-1.467,7.354h19.681C207.419,261.575,207.949,258.472,205.354,255.2Z" transform="translate(-160.675 -215.164)" fill="#996123"/>
  <path id="Trazado_2835" data-name="Trazado 2835" d="M190.469,259.034c.044-.186.148-.555.153-.57a9.845,9.845,0,0,1,8.22-6.918,9.839,9.839,0,0,0-9.576,4.593c-2.079,3.358-1.294,6.417-1.467,7.354h2.4A17.673,17.673,0,0,1,190.469,259.034Z" transform="translate(-160.675 -215.16)" fill="#8e551c"/>
  <path id="Trazado_2836" data-name="Trazado 2836" d="M316.018,360.774a13.428,13.428,0,0,0-2.84-5.23,3.587,3.587,0,0,1-1.956.956,7.6,7.6,0,0,1,1.044,5.335.847.847,0,0,0,1.016.882l1.822-.378A1.219,1.219,0,0,0,316.018,360.774Z" transform="translate(-266.282 -304.204)" fill="#996123"/>
  <path id="Trazado_2837" data-name="Trazado 2837" d="M311.223,326.893a3.166,3.166,0,0,1-3.406,2.852v-5.7A3.166,3.166,0,0,1,311.223,326.893Z" transform="translate(-263.369 -277.25)" fill="#efd0a3"/>
  <path id="Trazado_2838" data-name="Trazado 2838" d="M167.212,360.774a13.428,13.428,0,0,1,2.84-5.23,3.587,3.587,0,0,0,1.956.956,7.6,7.6,0,0,0-1.044,5.335.847.847,0,0,1-1.016.882l-1.822-.378A1.219,1.219,0,0,1,167.212,360.774Z" transform="translate(-143.017 -304.204)" fill="#8e551c"/>
  <path id="Trazado_2839" data-name="Trazado 2839" d="M180.589,326.893A3.166,3.166,0,0,0,184,329.745v-5.7A3.166,3.166,0,0,0,180.589,326.893Z" transform="translate(-154.513 -277.25)" fill="#efd0a3"/>
  <g id="Grupo_1480" data-name="Grupo 1480" transform="translate(26.074 48.422)">
    <path id="Trazado_2840" data-name="Trazado 2840" d="M307.816,336.964v2.443c2.524,0,4.138-2.2,3.078-4.074A3.5,3.5,0,0,1,307.816,336.964Z" transform="translate(-289.442 -335.333)" fill="#e2bf91"/>
    <path id="Trazado_2841" data-name="Trazado 2841" d="M180.9,335.333c-1.062,1.873.561,4.074,3.078,4.074v-2.443A3.5,3.5,0,0,1,180.9,335.333Z" transform="translate(-180.571 -335.333)" fill="#e2bf91"/>
  </g>
  <path id="Trazado_2842" data-name="Trazado 2842" d="M193.508,418.138l-.776-6.935a4.406,4.406,0,0,0-2.135-3.556l-.036-.009c-1.267-.759-2.186-.727-6.463-1.867-.473-.214-.2-1.132-.276-3.462a7.488,7.488,0,0,1-5.963-.013c-.076,2.276.2,3.259-.276,3.475-4.269,1.137-5.2,1.107-6.463,1.867l-.036.009a4.276,4.276,0,0,0-2.014,2.814c-.151.732-.112.791-.9,7.677Z" transform="translate(-143.889 -344.205)" fill="#efd0a3"/>
  <path id="Trazado_2843" data-name="Trazado 2843" d="M168.171,439.87h25.335l-.776-6.935a4.411,4.411,0,0,0-2.135-3.556l-.036-.009c-1.256-.752-2.268-.754-5.659-1.667v.9a4.038,4.038,0,0,1-.419,1.795c-.044.089-.116.222-.185.332l-.051.08c-.071.109-.147.213-.221.307-.035.044-.083.1-.12.144l-.018.02-.073.081-.008.009v0l-.011.012c-.029.03-.058.06-.087.089l-.029.029q-.057.056-.116.109l-.034.03-.075.065-.012.01-.046.037-.08.063-.051.039-.079.058-.04.028-.013.009-.084.055-.013.008-.039.025-.072.043-.024.014-.011.006-.032.019q-.07.04-.141.077l-.02.01-.007,0-.024.012-.1.047-.052.023-.1.042-.059.024-.094.036-.061.022-.1.033-.048.016-.012,0-.027.008-.079.023-.039.011-.013,0q-.08.021-.161.039l-.024.005-.072.015q-.1.019-.194.033-.2.029-.4.038l-.048,0h-.288l-.048,0q-.2-.009-.4-.038-.1-.014-.194-.033l-.072-.015-.024-.005c-.054-.012-.108-.025-.161-.039l-.013,0-.039-.011-.079-.023-.028-.008-.012,0-.048-.016-.1-.033-.061-.022-.094-.036-.059-.024-.1-.042-.052-.023-.1-.047-.024-.012-.007,0-.02-.01q-.071-.037-.141-.077l-.032-.019-.011-.006-.024-.014-.072-.043-.039-.025-.013-.008a4.052,4.052,0,0,1-1.681-2.23,6.818,6.818,0,0,1-.172-2.075l-.859.214c-2.7.736-3.626.739-4.829,1.46l-.036.009a4.29,4.29,0,0,0-2.014,2.814C168.916,432.923,168.946,433.066,168.171,439.87Z" transform="translate(-143.888 -365.938)" fill="#f9b938"/>
  <g id="Grupo_1481" data-name="Grupo 1481" transform="translate(24.283 62.351)">
    <path id="Trazado_2844" data-name="Trazado 2844" d="M170.954,439.007c.31-2.8.092-5.144,2.446-6.655l.036-.009a5.643,5.643,0,0,1,.836-.428c.054-.042.106-.081.156-.116a11.981,11.981,0,0,0-3.308,1.081l-.036.009a4.276,4.276,0,0,0-2.02,2.844c-.149.734-.115.835-.891,7.647h2.316Z" transform="translate(-168.172 -431.798)" fill="#eaa224"/>
    <path id="Trazado_2845" data-name="Trazado 2845" d="M200.01,486.043l.1-3.229a1.116,1.116,0,0,0-2.23-.072l-.106,3.3Z" transform="translate(-193.502 -474.462)" fill="#eaa224"/>
    <path id="Trazado_2846" data-name="Trazado 2846" d="M300.37,486.043l-.106-3.3a1.116,1.116,0,0,0-2.23.072l.1,3.229Z" transform="translate(-279.281 -474.462)" fill="#eaa224"/>
  </g>
  <path id="Trazado_2847" data-name="Trazado 2847" d="M231.086,408.121a1.459,1.459,0,0,0,.912-1.362v-3.836a7.441,7.441,0,0,1-2.983-.625c-.076,2.277.2,3.259-.276,3.475l-.775.193a6.824,6.824,0,0,0,.172,2.075,4.11,4.11,0,0,0,.435.962l2.515-.882Z" transform="translate(-195.045 -344.206)" fill="#e2bf91"/>
  <path id="Trazado_2848" data-name="Trazado 2848" d="M211.028,305.112c-1.679,2.793-5.244,2.364-6.51,2.108a.383.383,0,0,0-.457.376h0c0,4.545-.139,5.545.318,7.054a7.484,7.484,0,0,0,14.647-2.164V307.6h0a.383.383,0,0,0-.457-.376c-1.266.256-4.83.685-6.51-2.108A.6.6,0,0,0,211.028,305.112Z" transform="translate(-174.579 -260.804)" fill="#fce3bb"/>
  <path id="Trazado_2849" data-name="Trazado 2849" d="M207.9,327.946c-.2-1.126-.07-1.561-.11-6.493a8.776,8.776,0,0,1-3.262-.059.383.383,0,0,0-.457.376c0,4.614-.136,5.553.318,7.054a7.486,7.486,0,0,0,9.024,5.084A7.489,7.489,0,0,1,207.9,327.946Z" transform="translate(-174.583 -274.978)" fill="#efd0a3"/>
</svg>
