<svg xmlns="http://www.w3.org/2000/svg" width="76.784" height="78.707" viewBox="0 0 76.784 78.707">
  <g id="_001-box" data-name="001-box" transform="translate(-4.8)">
    <path id="Trazado_2857" data-name="Trazado 2857" d="M43.192,0,62.348,9.858l19.236,9.778L62.348,29.5,43.192,39.354,24.036,29.5,4.8,19.637,24.036,9.858Z" fill="#d9ac80"/>
    <path id="Trazado_2858" data-name="Trazado 2858" d="M277.618,144.1v-8.9L268,140.089v8.9l5.29-6.492Z" transform="translate(-210.461 -108.109)" fill="#d7baa4"/>
    <path id="Trazado_2859" data-name="Trazado 2859" d="M196.4,117.717V157.07l38.392-19.637V98l-14.427,7.454-.321.16v8.656l-4.008-1.523-5.29,6.492v-8.9Z" transform="translate(-153.208 -78.363)" fill="#a67e4f"/>
    <path id="Trazado_2860" data-name="Trazado 2860" d="M43.192,157.07V117.717l-19.156-9.858L4.8,98v39.434Z" transform="translate(0 -78.363)" fill="#926e43"/>
    <path id="Trazado_2861" data-name="Trazado 2861" d="M76.8,41.689l38.312,19.717,9.3-4.729.321-.16L86.418,36.8l-4.809,2.485Z" transform="translate(-57.573 -29.426)" fill="#f2d3ba"/>
  </g>
</svg>
