<svg id="_004-family" data-name="004-family" xmlns="http://www.w3.org/2000/svg" width="26.615" height="26.616" viewBox="0 0 26.615 26.616">
  <path id="Trazado_2802" data-name="Trazado 2802" d="M269.835,12.841h-2.346a.648.648,0,0,1-.646-.646l-.323-5.472S266,2.191,268.708,1.6c0,0,1.1-2.144,4.631-1.457a1.368,1.368,0,0,1,.141.041,5.365,5.365,0,0,1,2.2,1.324,5.675,5.675,0,0,1,1.584,4.453c0,1.57.025-.175-.323,6.24a.648.648,0,0,1-.646.646h-2.5" transform="translate(-252.627 -0.002)" fill="#7f7369"/>
  <path id="Trazado_2803" data-name="Trazado 2803" d="M270.24,12.926v-.768a4.061,4.061,0,0,1-2.431-3.516c0-.01,0-.042,0-.048,0-.053,0-.106,0-.16,0-2.416,0-2.269,0-2.309-.024-1.289.175-3.995,2.226-4.445A3.413,3.413,0,0,1,272.692.125C271.179-.041,269.4.408,268.7,1.68c-1.829.4-2.269,2.629-2.225,4.49q0,.039,0,.076c.011.345.036.562.036.562l.323,5.472a.648.648,0,0,0,.646.646Z" transform="translate(-252.624 -0.087)" fill="#72655a"/>
  <path id="Trazado_2804" data-name="Trazado 2804" d="M11.87,242.008l.694-6.2c.243-1.873.144-2.593.748-3.326a2.778,2.778,0,0,0-.629-.546l-.019,0a9.535,9.535,0,0,0-2.418-.742h0L9,230.591H9v-1.483a4.071,4.071,0,0,1-3.238.008h0L5.76,230.6h0l-1.237.588h0a9.539,9.539,0,0,0-2.418.742l-.019,0a1.735,1.735,0,0,0-.171.12,2.671,2.671,0,0,0-1.031,2.189l-.372,3.321h0C-.011,242.316,0,241.933,0,242.3a1.436,1.436,0,0,0,1.486,1.514h0c.1,0,11.732,0,11.821,0A1.478,1.478,0,0,1,11.87,242.008Z" transform="translate(-0.004 -217.198)" fill="#dd9a5e"/>
  <g id="Grupo_1473" data-name="Grupo 1473" transform="translate(0 11.918)">
    <path id="Trazado_2805" data-name="Trazado 2805" d="M1.343,286.3c-.009-.524.1-.518.922-9.023a2.38,2.38,0,0,1,.913-1.754,3.6,3.6,0,0,0-1.073.407l-.019,0a1.74,1.74,0,0,0-.171.12,2.671,2.671,0,0,0-1.031,2.189C.876,278.3,0,286.046,0,286.3a1.436,1.436,0,0,0,1.486,1.514H2.829A1.431,1.431,0,0,1,1.343,286.3Z" transform="translate(-0.003 -273.12)" fill="#d38d54"/>
    <path id="Trazado_2806" data-name="Trazado 2806" d="M112.058,232.019v-2.426a4.027,4.027,0,0,1-1.334-.322l-.005,1.481h0Z" transform="translate(-104.964 -229.271)" fill="#d38d54"/>
  </g>
  <path id="Trazado_2807" data-name="Trazado 2807" d="M242.82,244.953c-.946-8.374-.892-8.138-.977-8.547a2.323,2.323,0,0,0-1.094-1.528l-.019,0a3.3,3.3,0,0,0-.784-.335l-2.727-.679a.351.351,0,0,1-.15-.323v-1.315a4.069,4.069,0,0,1-3.238-.007v1.322a.351.351,0,0,1-.15.323c-2.306.614-2.819.6-3.51,1.014l-.019,0a2.378,2.378,0,0,0-1.16,1.931l-.911,8.144a1.477,1.477,0,0,0,1.476,1.806h11.787a1.436,1.436,0,0,0,1.486-1.514v0A2.854,2.854,0,0,0,242.82,244.953Z" transform="translate(-216.215 -220.144)" fill="#eab883"/>
  <path id="Trazado_2808" data-name="Trazado 2808" d="M229.409,285.286v0a2.825,2.825,0,0,1,.01-.29l.911-8.626a2.388,2.388,0,0,1,1.137-1.917,4.365,4.365,0,0,0-1.3.463l-.019,0a2.378,2.378,0,0,0-1.16,1.931l-.911,8.144a1.477,1.477,0,0,0,1.476,1.806H230.9A1.436,1.436,0,0,1,229.409,285.286Z" transform="translate(-216.215 -260.184)" fill="#d8a373"/>
  <path id="Trazado_2809" data-name="Trazado 2809" d="M251.572,240.506c-.43-3.815-.411-3.771-.479-4.1A2.326,2.326,0,0,0,250,234.877l-.019,0a3.3,3.3,0,0,0-.784-.335l-2.727-.679a.351.351,0,0,1-.15-.323v-1.315h0v-.007a4.035,4.035,0,0,1-3.238,0v.007h0v1.315a.351.351,0,0,1-.15.323c-2.306.614-2.819.6-3.51,1.014l-.019,0a2.39,2.39,0,0,0-1.16,1.931l-.414,3.7,2.608.274a.263.263,0,0,1,.235.274l-.287,5.7h8.646l-.3-5.682a.285.285,0,0,1,.255-.3Z" transform="translate(-225.465 -220.143)" fill="#d83d3d"/>
  <path id="Trazado_2810" data-name="Trazado 2810" d="M237.827,280.547l1.3.136.456-4.316a2.388,2.388,0,0,1,1.137-1.917,4.425,4.425,0,0,0-1.3.463l-.019,0a2.323,2.323,0,0,0-1.094,1.528C238.223,276.852,238.238,276.94,237.827,280.547Z" transform="translate(-225.464 -260.183)" fill="#a82626"/>
  <path id="Trazado_2811" data-name="Trazado 2811" d="M21.929,258.986l-.019,0a9.494,9.494,0,0,0-2.41-.74v0l-1.242-.594-.009.014v0l-1.62,1.525-1.615-1.527-1.237.588h0a9.539,9.539,0,0,0-2.418.742l-.019,0a2.378,2.378,0,0,0-1.16,1.931l-.414,3.7,2.559.268a.305.305,0,0,1,.273.319l-.284,5.663h8.646l-.3-5.681a.286.286,0,0,1,.256-.3l.684-.072c.5-4.16.355-4.533.962-5.277A3.682,3.682,0,0,0,21.929,258.986Z" transform="translate(-9.26 -244.252)" fill="#70bbef"/>
  <path id="Trazado_2812" data-name="Trazado 2812" d="M11.524,277.278a2.38,2.38,0,0,1,.913-1.754,3.609,3.609,0,0,0-1.073.407l-.019,0a2.792,2.792,0,0,0-.634.552c-.648.794-.472,1.419-.94,5.078l1.323.139C11.09,281.747,11.147,281.177,11.524,277.278Z" transform="translate(-9.263 -261.201)" fill="#4caee5"/>
  <path id="Trazado_2813" data-name="Trazado 2813" d="M320.409,231.2l-1.092-.272a.351.351,0,0,1-.15-.323v-1.476h0v-.007a4.037,4.037,0,0,1-3.238,0v.007h0v1.476a.351.351,0,0,1-.15.323l-1.108.276A3.288,3.288,0,0,0,320.409,231.2Z" transform="translate(-298.312 -217.213)" fill="#eab883"/>
  <path id="SVGCleanerId_0" d="M44.139,6.472v-1.4A5.085,5.085,0,0,1,52.117.912c2.614,1.825,2.116,4.509,2.174,5.561" transform="translate(-41.845 0)" fill="#4c4846"/>
  <g id="Grupo_1474" data-name="Grupo 1474" transform="translate(2.294 0)">
    <path id="SVGCleanerId_0_1_" d="M44.139,6.472v-1.4A5.085,5.085,0,0,1,52.117.912c2.614,1.825,2.116,4.509,2.174,5.561" transform="translate(-44.139 0)" fill="#4c4846"/>
  </g>
  <path id="Trazado_2814" data-name="Trazado 2814" d="M49.721.03a5.08,5.08,0,0,0-5.582,5.051v1.4h1.012v-1.4A5.077,5.077,0,0,1,49.721.03Z" transform="translate(-41.845 -0.005)" fill="#3f3b39"/>
  <g id="Grupo_1475" data-name="Grupo 1475" transform="translate(2.042 5.867)">
    <path id="Trazado_2815" data-name="Trazado 2815" d="M221.221,113.917a1.176,1.176,0,0,1-1.265,1.059v-2.118A1.176,1.176,0,0,1,221.221,113.917Z" transform="translate(-210.564 -112.858)" fill="#dd9a5e"/>
    <path id="Trazado_2816" data-name="Trazado 2816" d="M39.279,113.917a1.176,1.176,0,0,0,1.265,1.059v-2.118A1.176,1.176,0,0,0,39.279,113.917Z" transform="translate(-39.279 -112.858)" fill="#dd9a5e"/>
  </g>
  <g id="Grupo_1476" data-name="Grupo 1476" transform="translate(2.041 6.45)">
    <path id="Trazado_2817" data-name="Trazado 2817" d="M219.956,124.658v.952a1.176,1.176,0,0,0,1.265-1.059.918.918,0,0,0-.135-.476A1.308,1.308,0,0,1,219.956,124.658Z" transform="translate(-210.563 -124.075)" fill="#d38d54"/>
    <path id="Trazado_2818" data-name="Trazado 2818" d="M39.4,124.075c-.42.7.182,1.535,1.13,1.535v-.952A1.308,1.308,0,0,1,39.4,124.075Z" transform="translate(-39.263 -124.075)" fill="#d38d54"/>
  </g>
  <path id="Trazado_2819" data-name="Trazado 2819" d="M70.747,73.88a.58.58,0,0,0-.671-.578l-.212.031a15.684,15.684,0,0,1-4.7-.031.58.58,0,0,0-.671.578,1.655,1.655,0,0,1-.655,1.331,1.223,1.223,0,0,1-.282.159,15.036,15.036,0,0,0,.11,3.4,4.065,4.065,0,0,0,7.734.555c.389-.982.284-1.727.284-3.957A1.587,1.587,0,0,1,70.747,73.88Z" transform="translate(-60.249 -69.485)" fill="#edae6b"/>
  <path id="Trazado_2820" data-name="Trazado 2820" d="M65.1,79.444a14.556,14.556,0,0,1-.173-3.586.566.566,0,0,1,.223-.456,1.832,1.832,0,0,0,.715-1.5.627.627,0,0,1,.238-.483c-.193-.019-.381-.042-.555-.065-.1-.014-.216-.03-.331-.048a.58.58,0,0,0-.671.578,1.656,1.656,0,0,1-.655,1.331,1.222,1.222,0,0,1-.282.159c0,2.647,0,2.51,0,2.64a4.06,4.06,0,0,0,3.061,3.761A6.024,6.024,0,0,1,65.1,79.444Z" transform="translate(-60.3 -69.486)" fill="#dd9a5e"/>
  <path id="Trazado_2821" data-name="Trazado 2821" d="M134.86,283.137v-3.3l-.4.378-.4-.38v3.3a.4.4,0,0,0,.8,0Z" transform="translate(-127.088 -265.291)" fill="#4caee5"/>
  <path id="Trazado_2822" data-name="Trazado 2822" d="M143.413,257.645l-1.629,1.534.879.886a.4.4,0,0,0,.593-.035l1.4-1.79Z" transform="translate(-134.414 -244.252)" fill="#dadada"/>
  <g id="Grupo_1477" data-name="Grupo 1477" transform="translate(7.37 13.393)">
    <path id="Trazado_2823" data-name="Trazado 2823" d="M144.038,257.944l-.625-.3-1.629,1.534.582.586Z" transform="translate(-141.784 -257.645)" fill="#ceccca"/>
    <path id="Trazado_2824" data-name="Trazado 2824" d="M161,305.775a.4.4,0,0,0,.232.028Z" transform="translate(-160.001 -303.273)" fill="#ceccca"/>
  </g>
  <path id="Trazado_2825" data-name="Trazado 2825" d="M87.816,257.763l1.615,1.527-.879.886a.4.4,0,0,1-.593-.035l-1.4-1.79Z" transform="translate(-82.06 -244.364)" fill="#dadada"/>
  <path id="Trazado_2826" data-name="Trazado 2826" d="M99.122,259.285l.557.592.582-.586-1.615-1.527-.662.31Z" transform="translate(-92.89 -244.364)" fill="#ceccca"/>
  <path id="Trazado_2827" data-name="Trazado 2827" d="M317.274,231.424v-1.972a4.011,4.011,0,0,1-1.346-.329c-.041,1.171.106,1.689-.15,1.805l-1.108.276a3.518,3.518,0,0,0,1.089,1.145l1.151-.423S317.274,231.745,317.274,231.424Z" transform="translate(-298.312 -217.212)" fill="#d8a373"/>
  <path id="Trazado_2828" data-name="Trazado 2828" d="M299.72,89.02a.429.429,0,0,1,.409.428v.307h0a5.47,5.47,0,0,1-.173,1.77,4.065,4.065,0,0,1-7.949-.968c0-.015,0,0,0-.048s0-.106,0-.16V88.288h0v-.206a.5.5,0,0,1,.4-.493,3.253,3.253,0,0,0,1.694-.974.37.37,0,0,1,.556.018A6.861,6.861,0,0,0,299.72,89.02Z" transform="translate(-276.822 -82.002)" fill="#f7cf9c"/>
  <path id="Trazado_2829" data-name="Trazado 2829" d="M293.76,105.354c-.537-1.084-.412-1.853-.42-3.36v-1.569a3.153,3.153,0,0,1-.936.367.5.5,0,0,0-.4.493v2.267c0,.067,0,.172,0,.178s.006.1.009.146a4.066,4.066,0,0,0,4.72,3.684A4.066,4.066,0,0,1,293.76,105.354Z" transform="translate(-276.822 -95.205)" fill="#eab883"/>
  <g id="Grupo_1478" data-name="Grupo 1478" transform="translate(15.589 13.988)">
    <path id="Trazado_2830" data-name="Trazado 2830" d="M373.5,269.276l-.783-.2a3.348,3.348,0,0,1-2.871,1.685S373.513,274.437,373.5,269.276Z" transform="translate(-366.206 -269.081)" fill="#b72c2c"/>
    <path id="Trazado_2831" data-name="Trazado 2831" d="M299.884,269.276l.783-.2a3.348,3.348,0,0,0,2.871,1.685S299.868,274.437,299.884,269.276Z" transform="translate(-299.884 -269.081)" fill="#b72c2c"/>
  </g>
  <g id="Grupo_1479" data-name="Grupo 1479" transform="translate(15.625 15.029)">
    <path id="Trazado_2832" data-name="Trazado 2832" d="M302.457,289.236c-.648.345-1.394.509-1.872-.13.38,3.882,3.618.644,3.618.644A3.226,3.226,0,0,1,302.457,289.236Z" transform="translate(-300.585 -289.106)" fill="#a82626"/>
    <path id="Trazado_2833" data-name="Trazado 2833" d="M371.589,289.236c.648.345,1.394.509,1.872-.13-.38,3.882-3.618.644-3.618.644A3.226,3.226,0,0,0,371.589,289.236Z" transform="translate(-366.243 -289.106)" fill="#a82626"/>
  </g>
  <path id="Trazado_2834" data-name="Trazado 2834" d="M194.114,252.819a3.545,3.545,0,0,0-5.791.339,4.578,4.578,0,0,0-.528,2.647h7.085A4.185,4.185,0,0,0,194.114,252.819Z" transform="translate(-178.03 -238.405)" fill="#996123"/>
  <path id="Trazado_2835" data-name="Trazado 2835" d="M188.755,254.195c.016-.067.053-.2.055-.205a3.544,3.544,0,0,1,2.959-2.49,3.542,3.542,0,0,0-3.447,1.654,4.579,4.579,0,0,0-.528,2.647h.866A6.363,6.363,0,0,1,188.755,254.195Z" transform="translate(-178.029 -238.4)" fill="#8e551c"/>
  <path id="Trazado_2836" data-name="Trazado 2836" d="M312.948,357.427a4.834,4.834,0,0,0-1.022-1.883,1.291,1.291,0,0,1-.7.344,2.736,2.736,0,0,1,.376,1.921.3.3,0,0,0,.366.318l.656-.136A.439.439,0,0,0,312.948,357.427Z" transform="translate(-295.044 -337.061)" fill="#996123"/>
  <path id="Trazado_2837" data-name="Trazado 2837" d="M309.043,325.068a1.14,1.14,0,0,1-1.226,1.027v-2.054A1.14,1.14,0,0,1,309.043,325.068Z" transform="translate(-291.816 -307.196)" fill="#efd0a3"/>
  <path id="Trazado_2838" data-name="Trazado 2838" d="M167.174,357.427a4.834,4.834,0,0,1,1.022-1.883,1.291,1.291,0,0,0,.7.344,2.736,2.736,0,0,0-.376,1.921.3.3,0,0,1-.366.318l-.656-.136A.439.439,0,0,1,167.174,357.427Z" transform="translate(-158.464 -337.061)" fill="#8e551c"/>
  <path id="Trazado_2839" data-name="Trazado 2839" d="M180.589,325.068a1.14,1.14,0,0,0,1.226,1.027v-2.054A1.14,1.14,0,0,0,180.589,325.068Z" transform="translate(-171.201 -307.196)" fill="#efd0a3"/>
  <g id="Grupo_1480" data-name="Grupo 1480" transform="translate(9.387 17.432)">
    <path id="Trazado_2840" data-name="Trazado 2840" d="M307.816,335.92v.88c.909,0,1.49-.794,1.108-1.467A1.262,1.262,0,0,1,307.816,335.92Z" transform="translate(-301.201 -335.333)" fill="#e2bf91"/>
    <path id="Trazado_2841" data-name="Trazado 2841" d="M180.69,335.333c-.382.674.2,1.467,1.108,1.467v-.88A1.262,1.262,0,0,1,180.69,335.333Z" transform="translate(-180.571 -335.333)" fill="#e2bf91"/>
  </g>
  <path id="Trazado_2842" data-name="Trazado 2842" d="M177.294,408l-.279-2.5a1.586,1.586,0,0,0-.769-1.28l-.013,0a10.311,10.311,0,0,0-2.327-.672c-.17-.077-.071-.407-.1-1.246a2.7,2.7,0,0,1-2.147,0c-.027.819.072,1.173-.1,1.251a10.314,10.314,0,0,0-2.327.672l-.013,0a1.539,1.539,0,0,0-.725,1.013c-.054.263-.04.285-.323,2.764Z" transform="translate(-159.431 -381.384)" fill="#efd0a3"/>
  <path id="Trazado_2843" data-name="Trazado 2843" d="M168.171,432.079h9.121l-.279-2.5a1.588,1.588,0,0,0-.769-1.28l-.013,0a8.666,8.666,0,0,0-2.037-.6v.323a1.453,1.453,0,0,1-.151.646c-.016.032-.042.08-.066.12l-.018.029c-.026.039-.053.077-.08.11l-.043.052-.006.007-.026.029,0,0h0l0,0-.031.032-.01.01-.042.039-.012.011-.027.023,0,0-.017.013-.029.023-.018.014-.029.021-.014.01,0,0-.03.02,0,0-.014.009-.026.016-.009.005,0,0-.011.007-.051.028-.007,0h0l-.009,0-.034.017-.019.008-.035.015-.021.009-.034.013-.022.008-.035.012-.017.006h0l-.01,0-.029.008-.014,0h0l-.058.014-.009,0-.026.005-.07.012q-.07.01-.143.014h-.138q-.072,0-.143-.014l-.07-.012-.026-.005-.009,0-.058-.014h0l-.014,0-.028-.008-.01,0h0l-.017-.006-.035-.012-.022-.008-.034-.013-.021-.009-.035-.015-.019-.008-.034-.017-.009,0h0l-.007,0-.051-.028-.011-.007,0,0-.009-.005-.026-.016-.014-.009,0,0a1.459,1.459,0,0,1-.605-.8,2.454,2.454,0,0,1-.062-.747l-.309.077a7.015,7.015,0,0,0-1.738.526l-.013,0a1.544,1.544,0,0,0-.725,1.013C168.439,429.578,168.45,429.63,168.171,432.079Z" transform="translate(-159.429 -405.464)" fill="#f9b938"/>
  <g id="Grupo_1481" data-name="Grupo 1481" transform="translate(8.742 22.446)">
    <path id="Trazado_2844" data-name="Trazado 2844" d="M169.173,434.393c.112-1.007.033-1.852.88-2.4l.013,0a2.032,2.032,0,0,1,.3-.154l.056-.042a4.313,4.313,0,0,0-1.191.389l-.013,0a1.539,1.539,0,0,0-.727,1.024c-.054.264-.041.3-.321,2.753h.834Z" transform="translate(-168.172 -431.798)" fill="#eaa224"/>
    <path id="Trazado_2845" data-name="Trazado 2845" d="M198.581,483.239l.037-1.162a.4.4,0,0,0-.8-.026l-.038,1.188Z" transform="translate(-196.238 -479.07)" fill="#eaa224"/>
    <path id="Trazado_2846" data-name="Trazado 2846" d="M298.874,483.24l-.038-1.188a.4.4,0,0,0-.8.026l.037,1.162Z" transform="translate(-291.282 -479.071)" fill="#eaa224"/>
  </g>
  <path id="Trazado_2847" data-name="Trazado 2847" d="M229.087,404.394a.525.525,0,0,0,.328-.49v-1.381a2.679,2.679,0,0,1-1.074-.225c-.027.82.072,1.173-.1,1.251l-.279.069a2.457,2.457,0,0,0,.062.747,1.48,1.48,0,0,0,.157.346l.905-.317Z" transform="translate(-216.112 -381.385)" fill="#e2bf91"/>
  <path id="Trazado_2848" data-name="Trazado 2848" d="M206.557,304.925a2.177,2.177,0,0,1-2.343.759.138.138,0,0,0-.165.135h0a9.111,9.111,0,0,0,.114,2.54,2.694,2.694,0,0,0,5.273-.779v-1.76h0a.138.138,0,0,0-.165-.135,2.177,2.177,0,0,1-2.343-.759A.216.216,0,0,0,206.557,304.925Z" transform="translate(-193.435 -288.974)" fill="#fce3bb"/>
  <path id="Trazado_2849" data-name="Trazado 2849" d="M205.432,323.748a18.643,18.643,0,0,1-.04-2.338,3.159,3.159,0,0,1-1.174-.021.138.138,0,0,0-.165.135,9.046,9.046,0,0,0,.114,2.54,2.7,2.7,0,0,0,3.249,1.83A2.7,2.7,0,0,1,205.432,323.748Z" transform="translate(-193.44 -304.679)" fill="#efd0a3"/>
</svg>
