<svg id="_001-box" data-name="001-box" xmlns="http://www.w3.org/2000/svg" width="29.352" height="30.088" viewBox="0 0 29.352 30.088">
  <path id="Trazado_2857" data-name="Trazado 2857" d="M19.476,0,26.8,3.769l7.353,3.738L26.8,11.275l-7.323,3.769-7.323-3.769L4.8,7.507l7.353-3.738Z" transform="translate(-4.8)" fill="#d9ac80"/>
  <path id="Trazado_2858" data-name="Trazado 2858" d="M271.677,138.6v-3.4L268,137.069v3.4l2.022-2.482Z" transform="translate(-247.839 -124.844)" fill="#d7baa4"/>
  <path id="Trazado_2859" data-name="Trazado 2859" d="M196.4,105.537v15.044l14.676-7.507V98l-5.515,2.849-.123.061v3.309l-1.532-.582-2.022,2.482v-3.4Z" transform="translate(-181.724 -90.493)" fill="#a67e4f"/>
  <path id="Trazado_2860" data-name="Trazado 2860" d="M19.476,120.581V105.537l-7.323-3.769L4.8,98v15.074Z" transform="translate(-4.8 -90.493)" fill="#926e43"/>
  <path id="Trazado_2861" data-name="Trazado 2861" d="M76.8,38.669l14.646,7.537L95,44.4l.123-.061L80.477,36.8l-1.838.95Z" transform="translate(-71.285 -33.981)" fill="#f2d3ba"/>
</svg>
