<svg id="_002-blocks" data-name="002-blocks" xmlns="http://www.w3.org/2000/svg" width="41.184" height="30.727" viewBox="0 0 41.184 30.727">
  <path id="Trazado_2777" data-name="Trazado 2777" d="M216.642,65h-6.435A1.207,1.207,0,0,0,209,66.207v5.148a1.207,1.207,0,0,0,1.207,1.207h6.435a1.207,1.207,0,0,0,1.207-1.207V66.207A1.207,1.207,0,0,0,216.642,65Z" transform="translate(-192.189 -65)" fill="#ff515e"/>
  <path id="Trazado_2778" data-name="Trazado 2778" d="M376.642,65h-6.435A1.207,1.207,0,0,0,369,66.207v5.148a1.207,1.207,0,0,0,1.207,1.207h6.435a1.207,1.207,0,0,0,1.207-1.207V66.207A1.207,1.207,0,0,0,376.642,65Z" transform="translate(-339.318 -65)" fill="#c6507a"/>
  <path id="Trazado_2779" data-name="Trazado 2779" d="M203.947,129.207V140.79A1.207,1.207,0,0,1,202.74,142H178.207A1.207,1.207,0,0,1,177,140.79V129.207A1.207,1.207,0,0,1,178.207,128H202.74A1.207,1.207,0,0,1,203.947,129.207Z" transform="translate(-162.763 -122.932)" fill="#ff6888"/>
  <path id="Trazado_2780" data-name="Trazado 2780" d="M357.514,129.207V140.79A1.207,1.207,0,0,1,356.307,142H344V128h12.307A1.207,1.207,0,0,1,357.514,129.207Z" transform="translate(-316.329 -122.932)" fill="#ff515e"/>
  <path id="Trazado_2781" data-name="Trazado 2781" d="M342.514,273H330.207A1.207,1.207,0,0,0,329,274.207V285.79A1.207,1.207,0,0,0,330.207,287h12.307a1.207,1.207,0,0,0,1.207-1.207V274.207A1.207,1.207,0,0,0,342.514,273Z" transform="translate(-302.536 -256.269)" fill="#f4de48"/>
  <path id="Trazado_2782" data-name="Trazado 2782" d="M40.642,209H34.207A1.207,1.207,0,0,0,33,210.207v5.148a1.207,1.207,0,0,0,1.207,1.207h6.435a1.207,1.207,0,0,0,1.207-1.207v-5.148A1.207,1.207,0,0,0,40.642,209Z" transform="translate(-30.346 -197.417)" fill="#554fb2"/>
  <path id="Trazado_2783" data-name="Trazado 2783" d="M28.877,274.207V285.79A1.207,1.207,0,0,1,27.671,287H1.207A1.207,1.207,0,0,1,0,285.79V274.207A1.207,1.207,0,0,1,1.207,273H27.671A1.207,1.207,0,0,1,28.877,274.207Z" transform="translate(0 -256.269)" fill="#736dd9"/>
  <path id="Trazado_2784" data-name="Trazado 2784" d="M190.72,274.207V285.79A1.207,1.207,0,0,1,189.514,287H176V273h13.514A1.207,1.207,0,0,1,190.72,274.207Z" transform="translate(-161.843 -256.269)" fill="#554fb2"/>
</svg>
