<svg id="_003-seo-report" data-name="003-seo-report" xmlns="http://www.w3.org/2000/svg" width="34.493" height="46.261" viewBox="0 0 34.493 46.261">
  <path id="Trazado_2785" data-name="Trazado 2785" d="M130.5,43.031H102.521a1.642,1.642,0,0,1-1.642-1.642V1.642A1.642,1.642,0,0,1,102.521,0H130.5a1.642,1.642,0,0,1,1.642,1.642V41.389a1.642,1.642,0,0,1-1.642,1.642Z" transform="translate(-97.648 0)" fill="#3c87d0"/>
  <path id="Trazado_2786" data-name="Trazado 2786" d="M94.743,78.787H66.764a1.642,1.642,0,0,1-1.642-1.642V37.4a1.642,1.642,0,0,1,1.642-1.642H94.743A1.642,1.642,0,0,1,96.384,37.4V77.145A1.642,1.642,0,0,1,94.743,78.787Z" transform="translate(-65.122 -32.525)" fill="#c8effe"/>
  <path id="Trazado_2787" data-name="Trazado 2787" d="M358.406,35.757h-3.431a1.642,1.642,0,0,1,1.642,1.642V77.146a1.642,1.642,0,0,1-1.642,1.642h3.431a1.642,1.642,0,0,0,1.642-1.642V37.4a1.642,1.642,0,0,0-1.642-1.642Z" transform="translate(-328.786 -32.526)" fill="#b3dafe"/>
  <g id="Grupo_1467" data-name="Grupo 1467" transform="translate(17.507 9.387)">
    <g id="Grupo_1464" data-name="Grupo 1464">
      <path id="Trazado_2788" data-name="Trazado 2788" d="M268.555,105.195h-9.026a.649.649,0,0,1,0-1.3h9.026a.649.649,0,1,1,0,1.3Z" transform="translate(-258.88 -103.896)" fill="#3e5959"/>
    </g>
    <g id="Grupo_1465" data-name="Grupo 1465" transform="translate(0 3.038)">
      <path id="Trazado_2789" data-name="Trazado 2789" d="M268.555,138.815h-9.026a.649.649,0,0,1,0-1.3h9.026a.649.649,0,1,1,0,1.3Z" transform="translate(-258.88 -137.516)" fill="#3e5959"/>
    </g>
    <g id="Grupo_1466" data-name="Grupo 1466" transform="translate(0 6.075)">
      <path id="Trazado_2790" data-name="Trazado 2790" d="M268.555,172.434h-9.026a.649.649,0,0,1,0-1.3h9.026a.649.649,0,1,1,0,1.3Z" transform="translate(-258.88 -171.135)" fill="#3e5959"/>
    </g>
  </g>
  <g id="Grupo_1468" data-name="Grupo 1468" transform="translate(18.142 32.416)">
    <path id="Trazado_2791" data-name="Trazado 2791" d="M274.951,360.062h-8.39a.649.649,0,1,1,0-1.3h8.39a.649.649,0,1,1,0,1.3Z" transform="translate(-265.911 -358.763)" fill="#3e5959"/>
  </g>
  <g id="Grupo_1469" data-name="Grupo 1469" transform="translate(3.431 26.079)">
    <path id="Trazado_2792" data-name="Trazado 2792" d="M112.773,289.934h-9.026a.649.649,0,1,1,0-1.3h9.026a.649.649,0,1,1,0,1.3Z" transform="translate(-103.098 -288.635)" fill="#3e5959"/>
  </g>
  <g id="Grupo_1470" data-name="Grupo 1470" transform="translate(3.431 23.042)">
    <path id="Trazado_2793" data-name="Trazado 2793" d="M112.773,256.314h-9.026a.649.649,0,0,1,0-1.3h9.026a.649.649,0,0,1,0,1.3Z" transform="translate(-103.098 -255.015)" fill="#3e5959"/>
  </g>
  <path id="Trazado_2794" data-name="Trazado 2794" d="M169.859,74.888V80.92h6.032A6.032,6.032,0,0,0,169.859,74.888Z" transform="translate(-160.396 -68.122)" fill="#ee6161"/>
  <path id="Trazado_2795" data-name="Trazado 2795" d="M109.134,74.888a6.032,6.032,0,1,0,6.032,6.032h-6.032Z" transform="translate(-99.67 -68.122)" fill="#fea95c"/>
  <path id="Trazado_2796" data-name="Trazado 2796" d="M254.828,246.825H243.985a.433.433,0,0,1-.433-.433v-6.234a.433.433,0,0,1,.433-.433h10.843a.433.433,0,0,1,.433.433v6.234A.433.433,0,0,1,254.828,246.825Z" transform="translate(-227.43 -218.065)" fill="#ee6161"/>
  <path id="Trazado_2797" data-name="Trazado 2797" d="M105.428,356.56h-1.9a.433.433,0,0,1-.433-.433v-9.47a.433.433,0,0,1,.433-.433h1.9a.433.433,0,0,1,.433.433v9.47A.433.433,0,0,1,105.428,356.56Z" transform="translate(-99.667 -314.942)" fill="#fe7701"/>
  <path id="Trazado_2798" data-name="Trazado 2798" d="M162.469,381.575h-1.9a.433.433,0,0,1-.433-.433v-6.985a.433.433,0,0,1,.433-.433h1.9a.433.433,0,0,1,.433.433v6.985A.433.433,0,0,1,162.469,381.575Z" transform="translate(-151.554 -339.956)" fill="#fe9738"/>
  <path id="Trazado_2799" data-name="Trazado 2799" d="M219.511,412.739h-1.9a.433.433,0,0,1-.433-.433v-3.889a.433.433,0,0,1,.433-.433h1.9a.433.433,0,0,1,.433.433v3.889A.433.433,0,0,1,219.511,412.739Z" transform="translate(-203.442 -371.121)" fill="#fea95c"/>
  <g id="Grupo_1471" data-name="Grupo 1471" transform="translate(18.142 35.606)">
    <path id="Trazado_2800" data-name="Trazado 2800" d="M274.951,395.373h-8.39a.649.649,0,0,1,0-1.3h8.39a.649.649,0,0,1,0,1.3Z" transform="translate(-265.911 -394.074)" fill="#3e5959"/>
  </g>
  <g id="Grupo_1472" data-name="Grupo 1472" transform="translate(18.142 38.797)">
    <path id="Trazado_2801" data-name="Trazado 2801" d="M274.951,430.685h-8.39a.649.649,0,0,1,0-1.3h8.39a.649.649,0,0,1,0,1.3Z" transform="translate(-265.911 -429.386)" fill="#3e5959"/>
  </g>
</svg>
