<svg id="Page-1" xmlns="http://www.w3.org/2000/svg" width="19.86" height="16.44" viewBox="0 0 19.86 16.44">
  <g id="_032---Santa-Hat" data-name="032---Santa-Hat">
    <path id="Shape" d="M20.162,12.611l-1.311-.264a10.024,10.024,0,0,0-2.739-4.123v.007c.058.4.106.788.14,1.151a25.735,25.735,0,0,1,.13,2.6l-7.191.685L2,11.985C2,10.779,2,0,9.191,0c2.054,0,6.848.685,9.588,3.767C21.357,6.667,20.3,12,20.162,12.611Z" transform="translate(-1.315)" fill="#e64c3c"/>
    <path id="Shape-2" data-name="Shape" d="M33.566,19.092a7.467,7.467,0,0,0-.633-.678,18.28,18.28,0,0,0-4.414-3,.343.343,0,0,1,.308-.613,18.98,18.98,0,0,1,4.6,3.14C33.484,18.345,33.532,18.729,33.566,19.092Z" transform="translate(-18.63 -9.71)" fill="#c03a2b"/>
    <rect id="Rectangle-path" width="15.751" height="3.424" rx="1.712" transform="translate(0 11.985)" fill="#d1d4d1"/>
    <path id="Shape-3" data-name="Shape" d="M15.751,35.685v1.068a.685.685,0,0,1-.685.685H.685A.685.685,0,0,1,0,36.753V35.685A.687.687,0,0,1,.685,35H15.066A.687.687,0,0,1,15.751,35.685Z" transform="translate(0 -23.015)" fill="#ecf0f1"/>
    <path id="Shape-4" data-name="Shape" d="M50.109,38.054a2.054,2.054,0,0,1-4.1.171c0-.055-.007-.113-.007-.171a2.054,2.054,0,0,1,4.109,0Z" transform="translate(-30.249 -23.673)" fill="#d1d4d1"/>
    <path id="Shape-5" data-name="Shape" d="M49.51,36.774a2.054,2.054,0,0,1-3.5,1.455c0-.055-.007-.113-.007-.171A2.054,2.054,0,0,1,49.5,36.6C49.506,36.657,49.51,36.716,49.51,36.774Z" transform="translate(-30.249 -23.676)" fill="#ecf0f1"/>
  </g>
</svg>
