<svg xmlns="http://www.w3.org/2000/svg" width="65.428" height="74.2" viewBox="0 0 65.428 74.2">
  <g id="_002-programmer" data-name="002-programmer" transform="translate(-30.266 0)">
    <path id="Trazado_2862" data-name="Trazado 2862" d="M83.078,307.3c-.052-.262-3.239-16.273-3.274-16.438a6.206,6.206,0,0,0-2.942-4.188,7.064,7.064,0,0,0-2.022-.82l-10.868-3.8a1.587,1.587,0,0,1-1.072-1.5v-3.328a13.653,13.653,0,0,1-12.4.059v3.269a1.587,1.587,0,0,1-1.072,1.5l-4.468,1.532h0l-6.392,2.265-.841.248a6.431,6.431,0,0,0-3.578,3.15c-.511,1.037-.36.673-2.841,13.131-.919,4.759-1.122,5.105-1.007,6.168.32,2.972,3.377,2.662,3.459,2.7H79.647A3.148,3.148,0,0,0,83.078,307.3Z" transform="translate(0 -237.048)" fill="#6c7d87"/>
    <path id="Trazado_2863" data-name="Trazado 2863" d="M34.057,355.121l3.274-17.931a6.25,6.25,0,0,1,2.7-4.036c-2.749.974-1.9.584-2.742.946a6.265,6.265,0,0,0-3.442,3.669c-.244.693-.086.084-2.549,12.435-.919,4.759-1.122,5.106-1.007,6.169.32,2.972,3.377,2.662,3.459,2.7h3.733C34.855,359.071,33.717,357.531,34.057,355.121Z" transform="translate(-0.001 -284.872)" fill="#566a75"/>
    <path id="Trazado_2864" data-name="Trazado 2864" d="M40.53,458.11H33.774c-.087-.038-3.571.312-3.484-3.32.019-.774.116-.807,1.031-5.546l.053-.266H40.53Z" transform="translate(-0.02 -383.911)" fill="#dd9a5e"/>
    <path id="Trazado_2865" data-name="Trazado 2865" d="M35.023,448.979H31.376l-.053.266c-.919,4.756-1.012,4.771-1.031,5.546-.087,3.62,3.415,3.29,3.484,3.32h3.733c-2.426,0-3.532-1.276-3.484-3.32C34.03,454.554,34.119,454.058,35.023,448.979Z" transform="translate(-0.021 -383.911)" fill="#d18c54"/>
    <path id="Trazado_2866" data-name="Trazado 2866" d="M169.87,273.671c0,9.283,0-1.058,0,6.254h0v.223a3.456,3.456,0,0,0,2.357,3.277,12.582,12.582,0,0,0,7.68,0,3.455,3.455,0,0,0,2.357-3.277v-.223h0c0-1.455,0-5.476,0-6.254A13,13,0,0,1,169.87,273.671Z" transform="translate(-119.372 -234.009)" fill="#dd9a5e"/>
    <path id="Trazado_2867" data-name="Trazado 2867" d="M173.607,283.732h0c0-7.772,0-5.182,0-5.725a13.606,13.606,0,0,1-3.733-1.335c0,9.283,0-1.492,0,5.819h0v.223a3.456,3.456,0,0,0,2.357,3.277,11.5,11.5,0,0,0,2.2.5A4.421,4.421,0,0,1,173.607,283.732Z" transform="translate(-119.371 -236.575)" fill="#d18c54"/>
    <path id="Trazado_2868" data-name="Trazado 2868" d="M94.347,423.7a1.12,1.12,0,0,0-1.12,1.12V436.5h2.24V424.822A1.12,1.12,0,0,0,94.347,423.7Z" transform="translate(-53.837 -362.298)" fill="#566a75"/>
    <path id="Trazado_2869" data-name="Trazado 2869" d="M232.753,486.568H196.5a2.739,2.739,0,0,1-2.739-2.739h0a1.57,1.57,0,0,1,1.57-1.57h38.594a1.57,1.57,0,0,1,1.57,1.57h0A2.739,2.739,0,0,1,232.753,486.568Z" transform="translate(-139.798 -412.368)" fill="#c6c6c6"/>
    <path id="Trazado_2870" data-name="Trazado 2870" d="M200.813,483.829h0a1.57,1.57,0,0,1,1.57-1.57h-7.055a1.57,1.57,0,0,0-1.57,1.57h0a2.739,2.739,0,0,0,2.739,2.739h7.055A2.739,2.739,0,0,1,200.813,483.829Z" transform="translate(-139.798 -412.368)" fill="#b7b7b7"/>
    <path id="Trazado_2871" data-name="Trazado 2871" d="M249.979,316.826H218.473a1.8,1.8,0,0,0-1.792,1.792v20.391a1.8,1.8,0,0,0,1.792,1.792h31.506a1.8,1.8,0,0,0,1.792-1.792V318.618A1.8,1.8,0,0,0,249.979,316.826Z" transform="translate(-159.399 -270.91)" fill="#ededed"/>
    <g id="Grupo_1574" data-name="Grupo 1574" transform="translate(57.282 45.916)">
      <path id="Trazado_2872" data-name="Trazado 2872" d="M220.415,339.009V318.618a1.8,1.8,0,0,1,1.792-1.792h-3.733a1.8,1.8,0,0,0-1.792,1.792v20.391a1.8,1.8,0,0,0,1.792,1.792h3.733A1.8,1.8,0,0,1,220.415,339.009Z" transform="translate(-216.682 -316.826)" fill="#dadada"/>
      <circle id="Elipse_11" data-name="Elipse 11" cx="2.588" cy="2.588" r="2.588" transform="translate(14.957 9.399)" fill="#dadada"/>
    </g>
    <path id="Trazado_2873" data-name="Trazado 2873" d="M322.455,381.7a2.587,2.587,0,1,0,2.239,3.878A2.585,2.585,0,0,1,322.455,381.7Z" transform="translate(-247.627 -326.381)" fill="#c6c6c6"/>
    <path id="Trazado_2874" data-name="Trazado 2874" d="M105.367.059a17.921,17.921,0,0,0-17.79,17.916v6.79h35.836V14.607c0-6.938-4.268-8.536-4.268-8.536C113.837-.474,105.374.059,105.374.059" transform="translate(-49.005 -0.041)" fill="#4c4846"/>
    <path id="Trazado_2875" data-name="Trazado 2875" d="M107.782.125a17.977,17.977,0,0,0-20.195,17.1c-.028.726-.009.454-.015,7.5h4.268v-6.79A17.919,17.919,0,0,1,107.782.125Z" transform="translate(-49.001 0)" fill="#3d3938"/>
    <g id="Grupo_1575" data-name="Grupo 1575" transform="translate(38.298 22.372)">
      <path id="Trazado_2876" data-name="Trazado 2876" d="M90.374,154.587c-2.247-.8-4.687.689-4.687,2.861s2.439,3.662,4.687,2.861Z" transform="translate(-85.687 -154.367)" fill="#dd9a5e"/>
      <path id="Trazado_2877" data-name="Trazado 2877" d="M304.4,154.587c2.247-.8,4.687.689,4.687,2.861s-2.439,3.662-4.687,2.861Z" transform="translate(-272.706 -154.367)" fill="#dd9a5e"/>
    </g>
    <g id="Grupo_1576" data-name="Grupo 1576" transform="translate(38.29 24.137)">
      <path id="Trazado_2878" data-name="Trazado 2878" d="M85.971,166.548c-1.313,2.492,1.451,5.213,4.359,4.177v-2.632A3.585,3.585,0,0,1,85.971,166.548Z" transform="translate(-85.635 -166.548)" fill="#d18c54"/>
      <path id="Trazado_2879" data-name="Trazado 2879" d="M304.4,168.094v2.632c2.908,1.036,5.672-1.685,4.359-4.177A4.024,4.024,0,0,1,304.4,168.094Z" transform="translate(-272.699 -166.548)" fill="#d18c54"/>
    </g>
    <path id="Trazado_2880" data-name="Trazado 2880" d="M143.7,95.753a.677.677,0,0,1,.616.672c0,11.492.008,10.625-.019,11.159a13.614,13.614,0,0,1-4.1,9.077c-8.52,8.307-22.738,2.416-23.165-9.237-.02-.514-.012-6.466-.012-6.449a4.387,4.387,0,0,1,5.024-4.336,19.2,19.2,0,0,0,15.575-4.174,1.128,1.128,0,0,1,1.723.312A5.516,5.516,0,0,0,143.7,95.753Z" transform="translate(-74.18 -78.831)" fill="#edae6b"/>
    <path id="Trazado_2881" data-name="Trazado 2881" d="M120.767,133.679c-.017-.441-.013-8.5-.012-10.781a4.383,4.383,0,0,0-3.734,4.332c0-.017-.008,5.935.012,6.449a13.711,13.711,0,0,0,15.624,13A13.621,13.621,0,0,1,120.767,133.679Z" transform="translate(-74.181 -105.087)" fill="#dd9a5e"/>
  </g>
</svg>
